<?xml version="1.0" encoding="UTF-8" standalone="no"?>
<svg viewBox="0 0 640 300" xmlns="http://www.w3.org/2000/svg">
<path fill="#7b8a8b" d="M544.09 209.38L544.3 209.42L544.51 209.47L544.71 209.53L544.91 209.61L545.11 209.69L545.31 209.8L545.5 209.91L545.68 210.04L545.86 210.18L546.04 210.34L546.18 210.48L546.32 210.62L546.45 210.75L546.57 210.89L546.69 211.02L546.8 211.15L546.9 211.29L547 211.42L547.08 211.56L547.17 211.7L547.24 211.84L547.31 211.99L547.37 212.14L547.43 212.3L547.48 212.46L547.52 212.63L547.55 212.8L547.58 212.99L547.61 213.18L547.62 213.38L547.64 213.59L547.64 213.81L547.64 214.04L547.63 214.28L547.62 214.53L547.6 214.8L547.58 215.08L547.55 215.37L547.51 215.68L547.47 216L547.43 216.34L547.37 216.69L547.32 217.07L547.26 217.46L547.19 217.87L547.12 218.29L547.04 218.74L546.95 219.21L546.87 219.69L546.77 220.2L546.78 220.21L546.79 220.22L546.81 220.23L546.85 220.25L546.89 220.26L546.94 220.28L547.01 220.29L547.08 220.31L547.16 220.33L547.25 220.36L547.35 220.38L547.45 220.41L547.57 220.43L547.69 220.46L547.82 220.49L547.96 220.52L548.11 220.55L548.26 220.58L548.42 220.62L548.58 220.65L548.76 220.69L548.94 220.73L549.12 220.76L549.31 220.8L549.51 220.84L549.71 220.88L549.92 220.93L550.13 220.97L550.35 221.01L550.57 221.05L550.8 221.1L551.03 221.14L551.26 221.19L551.5 221.24L551.75 221.28L551.99 221.33L552.24 221.38L552.49 221.42L552.75 221.47L553.01 221.52L553.45 221.6L553.87 221.68L554.26 221.75L554.64 221.82L555 221.89L555.34 221.95L555.66 222L555.96 222.05L556.24 222.1L556.5 222.15L556.75 222.19L556.98 222.22L557.19 222.25L557.39 222.28L557.57 222.3L557.74 222.32L557.89 222.34L558.03 222.35L558.15 222.36L558.26 222.36L558.35 222.36L558.43 222.36L558.5 222.35L558.56 222.34L558.61 222.32L558.64 222.3L558.67 222.28L558.68 222.25L558.69 222.22L558.68 222.18L558.67 222.14L558.64 222.1L558.61 222.05L558.57 222L558.53 221.94L558.47 221.88L558.41 221.82L558.35 221.75L558.27 221.68L558.2 221.61L558.06 221.47L557.93 221.32L557.8 221.17L557.69 221.02L557.58 220.85L557.47 220.68L557.38 220.51L557.29 220.33L557.21 220.15L557.13 219.96L557.07 219.77L557.01 219.57L556.95 219.38L556.91 219.17L556.87 218.97L556.84 218.77L556.81 218.56L556.79 218.35L556.78 218.14L556.78 217.93L556.78 217.72L556.79 217.51L556.81 217.3L556.84 217.09L556.87 216.89L556.91 216.68L556.95 216.47L557.01 216.27L557.07 216.07L557.13 215.87L557.21 215.68L557.29 215.49L557.38 215.3L557.47 215.11L557.58 214.94L557.68 214.76L557.8 214.59L557.92 214.43L558.06 214.27L558.19 214.12L558.27 214.04L558.35 213.96L558.44 213.88L558.53 213.81L558.63 213.73L558.72 213.66L558.83 213.59L558.93 213.52L559.04 213.45L559.15 213.39L559.26 213.32L559.37 213.26L559.49 213.2L559.61 213.14L559.73 213.09L559.85 213.03L559.97 212.98L560.09 212.93L560.21 212.89L560.34 212.84L560.46 212.8L560.58 212.76L560.71 212.73L560.83 212.69L560.95 212.66L561.08 212.63L561.2 212.61L561.32 212.59L561.43 212.57L561.55 212.55L561.67 212.54L561.78 212.53L561.89 212.53L562 212.53L562.1 212.53L562.2 212.54L562.3 212.55L562.4 212.56L562.49 212.58L562.58 212.6L562.75 212.65L562.92 212.72L563.09 212.79L563.25 212.88L563.42 212.97L563.57 213.07L563.73 213.17L563.88 213.29L564.02 213.41L564.16 213.54L564.3 213.68L564.43 213.82L564.56 213.96L564.68 214.12L564.8 214.28L564.91 214.44L565.01 214.61L565.11 214.78L565.21 214.96L565.3 215.14L565.38 215.32L565.46 215.5L565.53 215.69L565.59 215.88L565.65 216.08L565.7 216.27L565.74 216.47L565.77 216.67L565.8 216.86L565.82 217.06L565.84 217.26L565.84 217.46L565.84 217.66L565.83 217.85L565.81 218.05L565.78 218.24L565.75 218.44L565.7 218.63L565.65 218.81L565.59 219L565.57 219.06L565.55 219.11L565.53 219.17L565.52 219.23L565.5 219.29L565.48 219.34L565.47 219.4L565.45 219.45L565.44 219.51L565.42 219.56L565.41 219.61L565.39 219.66L565.38 219.72L565.37 219.77L565.36 219.81L565.35 219.86L565.34 219.91L565.33 219.96L565.32 220L565.31 220.05L565.3 220.09L565.3 220.13L565.29 220.17L565.29 220.21L565.28 220.25L565.28 220.28L565.28 220.32L565.28 220.35L565.27 220.38L565.27 220.41L565.27 220.44L565.28 220.46L565.28 220.49L565.28 220.51L565.29 220.53L565.29 220.55L565.3 220.57L565.3 220.58L565.31 220.59L565.32 220.6L565.33 220.61L565.34 220.62L565.35 220.64L565.35 220.65L565.36 220.67L565.36 220.69L565.37 220.72L565.37 220.74L565.38 220.77L565.38 220.79L565.38 220.82L565.38 220.85L565.38 220.89L565.38 220.92L565.38 220.96L565.38 221L565.38 221.04L565.37 221.08L565.37 221.12L565.37 221.16L565.36 221.21L565.36 221.25L565.35 221.3L565.34 221.35L565.33 221.4L565.33 221.45L565.32 221.5L565.31 221.55L565.3 221.6L565.29 221.66L565.28 221.71L565.26 221.77L565.25 221.82L565.24 221.88L565.22 221.94L565.21 222L565.2 222.05L565.18 222.11L565.16 222.17L565.15 222.23L564.75 223.59L570.73 224.73L571.29 224.84L571.82 224.93L572.32 225.03L572.79 225.11L573.24 225.2L573.66 225.27L574.06 225.34L574.43 225.41L574.78 225.47L575.11 225.53L575.41 225.58L575.69 225.62L575.96 225.66L576.2 225.7L576.42 225.73L576.62 225.75L576.8 225.77L576.96 225.78L577.11 225.79L577.23 225.8L577.34 225.79L577.44 225.79L577.52 225.78L577.58 225.76L577.63 225.74L577.67 225.71L577.69 225.68L577.7 225.64L577.7 225.6L577.68 225.55L577.66 225.5L577.62 225.44L577.58 225.38L577.52 225.31L577.46 225.23L577.39 225.16L577.31 225.07L577.22 224.98L577.13 224.89L577.03 224.79L576.89 224.64L576.75 224.49L576.63 224.32L576.52 224.15L576.41 223.97L576.32 223.79L576.23 223.6L576.15 223.4L576.08 223.2L576.02 222.99L575.97 222.78L575.93 222.56L575.89 222.34L575.87 222.12L575.85 221.9L575.84 221.67L575.84 221.45L575.84 221.22L575.86 220.99L575.88 220.76L575.92 220.53L575.96 220.31L576 220.08L576.06 219.85L576.12 219.63L576.19 219.41L576.27 219.2L576.36 218.98L576.45 218.78L576.55 218.57L576.66 218.37L576.78 218.18L576.9 217.99L577.03 217.81L577.17 217.63L577.32 217.47L577.47 217.31L577.63 217.16L577.79 217.01L577.97 216.88L578.14 216.76L578.31 216.66L578.49 216.56L578.66 216.46L578.84 216.38L579.02 216.31L579.2 216.24L579.38 216.19L579.57 216.14L579.75 216.1L579.93 216.07L580.12 216.05L580.3 216.03L580.48 216.02L580.66 216.03L580.84 216.03L581.02 216.05L581.2 216.08L581.38 216.11L581.55 216.15L581.72 216.2L581.89 216.26L582.06 216.32L582.22 216.39L582.38 216.47L582.54 216.55L582.7 216.65L582.85 216.75L582.99 216.86L583.14 216.97L583.27 217.09L583.41 217.22L583.53 217.36L583.66 217.5L583.77 217.65L583.88 217.81L583.99 217.97L584.09 218.14L584.18 218.32L584.27 218.5L584.31 218.6L584.35 218.7L584.38 218.79L584.42 218.88L584.45 218.97L584.48 219.06L584.51 219.15L584.53 219.24L584.56 219.33L584.58 219.42L584.6 219.52L584.62 219.61L584.63 219.7L584.65 219.8L584.66 219.9L584.67 220L584.68 220.1L584.69 220.21L584.69 220.32L584.69 220.43L584.69 220.55L584.69 220.68L584.69 220.8L584.68 220.94L584.68 221.07L584.67 221.22L584.66 221.37L584.65 221.52L584.63 221.68L584.62 221.85L584.6 222.03L584.58 222.21L584.56 222.41L584.54 222.61L584.52 222.81L584.49 223.03L584.46 223.26L584.44 223.49L584.41 223.74L584.37 224L584.37 224.05L584.36 224.11L584.35 224.17L584.34 224.22L584.33 224.28L584.33 224.34L584.32 224.4L584.31 224.47L584.3 224.53L584.29 224.59L584.28 224.65L584.28 224.71L584.27 224.78L584.26 224.84L584.25 224.9L584.24 224.96L584.24 225.03L584.23 225.09L584.22 225.15L584.21 225.21L584.2 225.27L584.2 225.33L584.19 225.39L584.18 225.45L584.18 225.51L584.17 225.57L584.16 225.62L584.16 225.68L584.15 225.73L584.14 225.79L584.14 225.84L584.13 225.89L584.12 225.94L584.12 225.99L584.11 226.04L584.11 226.08L584.1 226.12L584.1 226.17L584.1 226.2L584.09 226.24L584.09 226.3L584.09 226.36L584.09 226.41L584.11 226.46L584.14 226.52L584.18 226.57L584.22 226.62L584.28 226.67L584.36 226.73L584.44 226.78L584.54 226.83L584.66 226.88L584.79 226.94L584.94 226.99L585.11 227.05L585.29 227.11L585.49 227.17L585.72 227.23L585.96 227.29L586.23 227.36L586.51 227.43L586.82 227.5L587.16 227.57L587.52 227.65L587.9 227.73L588.31 227.82L588.75 227.9L589.21 228L589.71 228.09L590.23 228.19L590.78 228.3L591.37 228.41L591.98 228.52L592.63 228.64L593.31 228.77L594.03 228.9L594.78 229.03L595.57 229.17L596.39 229.32L597.25 229.48L598.21 229.65L599.13 229.81L600 229.96L600.83 230.1L601.61 230.24L602.35 230.38L603.05 230.5L603.71 230.62L604.33 230.73L604.91 230.84L605.46 230.94L605.97 231.04L606.45 231.14L606.9 231.23L607.32 231.31L607.71 231.4L608.07 231.48L608.41 231.56L608.72 231.63L609 231.71L609.27 231.78L609.51 231.85L609.74 231.92L609.94 232L610.13 232.07L610.31 232.14L610.47 232.21L610.61 232.28L610.75 232.36L610.87 232.43L610.99 232.51L611.1 232.59L611.2 232.68L611.3 232.77L611.39 232.86L611.49 232.95L611.58 233.05L611.67 233.16L611.76 233.26L611.86 233.38L612.12 233.7L612.37 234.05L612.62 234.41L612.86 234.8L613.09 235.22L613.31 235.65L613.53 236.1L613.74 236.57L613.94 237.06L614.13 237.57L614.31 238.1L614.49 238.63L614.66 239.19L614.82 239.76L614.97 240.34L615.11 240.93L615.24 241.53L615.36 242.15L615.48 242.77L615.58 243.41L615.68 244.05L615.76 244.7L615.84 245.35L615.9 246.01L615.96 246.68L616 247.34L616.04 248.02L616.06 248.69L616.08 249.36L616.08 250.04L616.08 250.71L616.06 251.38L616.03 252.06L615.99 252.72L615.94 253.39L615.88 254.04L615.8 254.7L615.72 255.34L615.62 255.98L615.51 256.61L615.42 257.03L615.33 257.46L615.21 257.9L615.08 258.36L614.94 258.82L614.79 259.29L614.62 259.77L614.44 260.25L614.25 260.74L614.05 261.24L613.84 261.74L613.62 262.25L613.39 262.76L613.15 263.27L612.9 263.79L612.64 264.3L612.37 264.81L612.1 265.33L611.82 265.84L611.54 266.35L611.24 266.85L610.94 267.35L610.64 267.85L610.33 268.34L610.02 268.82L609.71 269.3L609.39 269.77L609.07 270.23L608.74 270.68L608.42 271.12L608.09 271.54L607.76 271.96L607.43 272.36L607.1 272.75L606.78 273.12L606.45 273.48L606.12 273.82L605.8 274.14L605.48 274.45L605.16 274.74L604.88 274.98L604.62 275.21L604.37 275.42L604.12 275.63L603.89 275.82L603.66 276L603.43 276.17L603.21 276.32L602.99 276.46L602.77 276.59L602.54 276.7L602.31 276.81L602.07 276.89L601.83 276.97L601.57 277.03L601.31 277.08L601.03 277.12L600.74 277.14L600.43 277.15L600.11 277.14L599.76 277.12L599.39 277.09L599 277.04L598.59 276.98L598.15 276.91L597.68 276.82L597.19 276.71L596.66 276.6L596.1 276.47L595.5 276.32L594.87 276.16L594.2 275.99L593.49 275.8L592.74 275.6L591.95 275.38L591.11 275.15L590.22 274.9L589.29 274.64L588.31 274.37L587.28 274.07L586.76 273.93L586.25 273.79L585.75 273.64L585.24 273.5L584.75 273.36L584.26 273.23L583.78 273.09L583.3 272.96L582.83 272.83L582.37 272.7L581.92 272.58L581.47 272.46L581.04 272.34L580.61 272.22L580.2 272.1L579.79 271.99L579.4 271.89L579.01 271.78L578.64 271.68L578.28 271.58L577.94 271.49L577.6 271.4L577.28 271.31L576.97 271.23L576.68 271.15L576.4 271.08L576.14 271L575.89 270.94L575.66 270.88L575.45 270.82L575.25 270.77L575.07 270.72L574.91 270.68L574.76 270.64L574.63 270.61L574.53 270.58L574.44 270.56L574.37 270.55L574.32 270.53L574.3 270.53L574.28 270.54L574.26 270.55L574.24 270.56L574.22 270.59L574.2 270.61L574.17 270.65L574.15 270.68L574.12 270.73L574.09 270.78L574.06 270.83L574.03 270.89L574 270.95L573.96 271.01L573.93 271.08L573.89 271.16L573.86 271.24L573.82 271.32L573.78 271.41L573.74 271.5L573.7 271.59L573.66 271.69L573.62 271.79L573.57 271.9L573.53 272L573.49 272.11L573.44 272.23L573.4 272.34L573.35 272.46L573.31 272.59L573.26 272.71L573.21 272.84L573.17 272.97L573.12 273.1L573.07 273.23L573.03 273.37L572.98 273.5L572.93 273.64L572.88 273.78L572.84 273.92L572.79 274.07L572.72 274.27L572.65 274.47L572.58 274.66L572.52 274.84L572.46 275.02L572.39 275.19L572.33 275.35L572.27 275.51L572.21 275.67L572.16 275.82L572.1 275.96L572.04 276.1L571.99 276.23L571.93 276.36L571.88 276.48L571.82 276.6L571.77 276.71L571.72 276.82L571.66 276.93L571.61 277.03L571.56 277.13L571.5 277.22L571.45 277.31L571.39 277.4L571.34 277.48L571.28 277.57L571.23 277.64L571.17 277.72L571.12 277.79L571.06 277.86L571 277.93L570.94 277.99L570.88 278.06L570.82 278.12L570.75 278.18L570.69 278.24L570.62 278.29L570.55 278.35L570.48 278.4L570.41 278.45L570.29 278.54L570.16 278.61L570.04 278.69L569.91 278.76L569.78 278.82L569.65 278.88L569.52 278.93L569.38 278.98L569.25 279.02L569.12 279.06L568.98 279.09L568.84 279.12L568.7 279.14L568.57 279.16L568.43 279.17L568.29 279.18L568.15 279.18L568.01 279.18L567.87 279.17L567.73 279.16L567.59 279.14L567.46 279.12L567.32 279.1L567.18 279.06L567.04 279.03L566.91 278.99L566.77 278.94L566.63 278.89L566.5 278.83L566.37 278.77L566.24 278.71L566.11 278.64L565.98 278.56L565.85 278.49L565.72 278.4L565.6 278.31L565.48 278.22L565.36 278.12L565.24 278.02L565.12 277.91L564.93 277.72L564.76 277.52L564.6 277.31L564.45 277.09L564.32 276.86L564.2 276.62L564.09 276.38L564 276.13L563.92 275.88L563.85 275.62L563.8 275.36L563.76 275.1L563.73 274.83L563.71 274.56L563.71 274.29L563.72 274.02L563.73 273.75L563.77 273.48L563.81 273.22L563.86 272.95L563.93 272.69L564 272.44L564.09 272.18L564.18 271.94L564.29 271.69L564.41 271.46L564.54 271.23L564.68 271.01L564.82 270.8L564.98 270.6L565.15 270.41L565.32 270.23L565.51 270.06L565.71 269.91L565.91 269.76L566.12 269.63L566.34 269.52L566.57 269.42L566.81 269.34L567.05 269.27L567.11 269.25L567.16 269.24L567.21 269.23L567.26 269.22L567.31 269.2L567.35 269.19L567.4 269.18L567.45 269.16L567.49 269.15L567.53 269.14L567.58 269.12L567.62 269.11L567.66 269.1L567.7 269.08L567.73 269.07L567.77 269.06L567.8 269.05L567.84 269.03L567.87 269.02L567.9 269.01L567.93 269L567.96 268.98L567.98 268.97L568.01 268.96L568.03 268.95L568.05 268.94L568.07 268.93L568.09 268.92L568.1 268.91L568.11 268.9L568.13 268.89L568.14 268.88L568.15 268.87L568.15 268.86L568.16 268.85L568.16 268.84L568.16 268.83L568.16 268.83L568.15 268.82L568.15 268.81L568.13 268.8L568.11 268.79L568.08 268.78L568.04 268.76L567.98 268.74L567.92 268.72L567.85 268.69L567.77 268.67L567.68 268.64L567.58 268.61L567.47 268.57L567.36 268.54L567.23 268.5L567.1 268.46L566.96 268.41L566.82 268.37L566.66 268.32L566.5 268.27L566.33 268.22L566.16 268.17L565.98 268.12L565.79 268.06L565.6 268L565.4 267.94L565.2 267.88L564.99 267.82L564.77 267.76L564.55 267.7L564.33 267.63L564.1 267.56L563.87 267.5L563.63 267.43L563.39 267.36L563.15 267.29L562.9 267.22L562.65 267.15L562.4 267.08L562.14 267L561.88 266.93L561.62 266.86L555.25 265.05L554.9 266.75L554.88 266.82L554.86 266.88L554.85 266.95L554.83 267.02L554.81 267.08L554.8 267.14L554.78 267.21L554.76 267.27L554.75 267.33L554.73 267.39L554.72 267.44L554.7 267.5L554.68 267.55L554.67 267.6L554.65 267.66L554.64 267.7L554.62 267.75L554.6 267.8L554.59 267.84L554.57 267.88L554.56 267.92L554.54 267.96L554.53 268L554.51 268.03L554.5 268.06L554.49 268.09L554.47 268.12L554.46 268.14L554.45 268.16L554.43 268.18L554.42 268.2L554.41 268.21L554.4 268.23L554.38 268.24L554.37 268.24L554.36 268.25L554.35 268.25L554.34 268.25L554.33 268.24L554.32 268.23L554.31 268.23L554.3 268.22L554.29 268.22L554.28 268.22L554.27 268.22L554.26 268.23L554.25 268.23L554.24 268.24L554.24 268.25L554.23 268.27L554.22 268.28L554.21 268.3L554.2 268.32L554.19 268.35L554.18 268.37L554.17 268.4L554.16 268.42L554.15 268.45L554.14 268.49L554.13 268.52L554.12 268.55L554.11 268.59L554.11 268.63L554.1 268.67L554.09 268.71L554.08 268.75L554.07 268.8L554.06 268.84L554.06 268.89L554.05 268.94L554.04 268.98L554.03 269.03L554.03 269.09L554.02 269.14L554.01 269.19L554.01 269.25L554 269.3L554 269.36L553.99 269.41L553.98 269.47L553.97 269.64L553.94 269.8L553.91 269.97L553.87 270.13L553.82 270.3L553.76 270.46L553.7 270.62L553.64 270.78L553.56 270.94L553.48 271.1L553.4 271.25L553.31 271.4L553.21 271.55L553.11 271.7L553.01 271.85L552.9 271.99L552.78 272.13L552.66 272.26L552.54 272.39L552.41 272.52L552.28 272.64L552.15 272.76L552.01 272.88L551.87 272.99L551.73 273.1L551.58 273.2L551.44 273.29L551.29 273.38L551.14 273.47L550.98 273.55L550.83 273.62L550.67 273.69L550.51 273.75L550.36 273.8L550.2 273.85L550.04 273.89L549.88 273.92L549.72 273.94L549.56 273.96L549.4 273.97L549.19 273.97L548.99 273.96L548.79 273.94L548.59 273.9L548.39 273.86L548.2 273.81L548.01 273.75L547.83 273.68L547.65 273.6L547.48 273.51L547.31 273.42L547.14 273.31L546.98 273.2L546.82 273.09L546.67 272.96L546.53 272.83L546.39 272.69L546.26 272.54L546.13 272.39L546.01 272.23L545.89 272.06L545.78 271.89L545.68 271.71L545.58 271.53L545.5 271.35L545.41 271.15L545.34 270.96L545.27 270.76L545.21 270.55L545.16 270.34L545.12 270.13L545.08 269.92L545.06 269.7L545.04 269.48L545.03 269.25L545.02 269.02L545.03 268.79L545.05 268.56L545.07 268.33L545.11 268.09L545.14 267.96L545.17 267.82L545.21 267.69L545.25 267.55L545.3 267.41L545.36 267.27L545.42 267.14L545.48 267L545.55 266.86L545.62 266.72L545.7 266.59L545.78 266.45L545.86 266.31L545.95 266.18L546.04 266.05L546.14 265.92L546.24 265.79L546.34 265.66L546.44 265.54L546.55 265.42L546.66 265.3L546.77 265.18L546.88 265.07L546.99 264.96L547.11 264.86L547.23 264.75L547.35 264.66L547.47 264.56L547.59 264.47L547.71 264.39L547.83 264.31L547.96 264.23L548.08 264.16L548.2 264.09L548.33 264.03L548.45 263.98L548.57 263.93L548.69 263.89L548.81 263.85L548.93 263.83L548.99 263.81L549.05 263.8L549.09 263.79L549.13 263.77L549.16 263.76L549.19 263.74L549.2 263.72L549.21 263.7L549.21 263.68L549.2 263.66L549.18 263.63L549.16 263.6L549.13 263.58L549.08 263.55L549.03 263.51L548.97 263.48L548.9 263.45L548.82 263.41L548.74 263.37L548.64 263.33L548.53 263.29L548.42 263.24L548.29 263.2L548.16 263.15L548.01 263.1L547.85 263.04L547.69 262.99L547.51 262.93L547.32 262.87L547.12 262.8L546.92 262.74L546.7 262.67L546.47 262.6L546.22 262.53L545.97 262.45L545.71 262.37L545.43 262.29L545.14 262.21L544.84 262.12L544.53 262.03L544.3 261.96L544.08 261.9L543.85 261.83L543.63 261.77L543.41 261.7L543.19 261.64L542.97 261.58L542.76 261.52L542.54 261.46L542.33 261.4L542.12 261.34L541.92 261.28L541.72 261.23L541.52 261.18L541.33 261.12L541.14 261.07L540.95 261.03L540.77 260.98L540.59 260.93L540.42 260.89L540.26 260.84L540.09 260.8L539.94 260.76L539.79 260.73L539.64 260.69L539.5 260.66L539.37 260.63L539.24 260.6L539.12 260.57L539.01 260.54L538.9 260.52L538.8 260.5L538.71 260.48L538.62 260.46L538.55 260.45L538.48 260.43L538.42 260.42L538.37 260.42L538.32 260.41L538.29 260.41L538.25 260.41L538.21 260.41L538.17 260.42L538.14 260.43L538.1 260.44L538.06 260.46L538.02 260.48L537.99 260.5L537.95 260.53L537.91 260.56L537.87 260.6L537.84 260.64L537.8 260.68L537.76 260.73L537.73 260.78L537.69 260.84L537.65 260.9L537.61 260.96L537.57 261.03L537.54 261.1L537.5 261.18L537.46 261.27L537.42 261.36L537.38 261.45L537.33 261.55L537.29 261.65L537.25 261.76L537.21 261.87L537.16 261.99L537.12 262.12L537.07 262.24L537.03 262.38L536.98 262.52L536.93 262.67L536.88 262.82L536.83 262.98L536.78 263.14L536.73 263.31L536.68 263.49L536.62 263.67L536.53 263.96L536.44 264.24L536.35 264.51L536.25 264.77L536.16 265.02L536.06 265.27L535.96 265.51L535.86 265.74L535.75 265.96L535.65 266.17L535.54 266.37L535.44 266.57L535.32 266.76L535.21 266.94L535.1 267.11L534.98 267.27L534.86 267.43L534.74 267.58L534.62 267.72L534.49 267.85L534.36 267.98L534.23 268.1L534.1 268.21L533.97 268.31L533.83 268.41L533.69 268.5L533.54 268.58L533.4 268.65L533.25 268.72L533.1 268.78L532.94 268.84L532.78 268.88L532.62 268.92L532.46 268.96L532.29 268.98L532.12 269L531.95 269.02L531.78 269.02L531.6 269.02L531.41 269.02L531.2 269L530.98 268.97L530.77 268.93L530.57 268.88L530.37 268.81L530.17 268.73L529.98 268.65L529.79 268.55L529.6 268.44L529.43 268.33L529.26 268.2L529.09 268.07L528.93 267.92L528.77 267.77L528.63 267.61L528.48 267.45L528.35 267.27L528.22 267.09L528.1 266.91L527.99 266.72L527.88 266.52L527.78 266.32L527.69 266.11L527.61 265.9L527.54 265.69L527.47 265.47L527.42 265.25L527.37 265.03L527.33 264.8L527.31 264.57L527.29 264.34L527.28 264.11L527.28 263.88L527.29 263.65L527.32 263.42L527.35 263.18L527.39 262.95L527.45 262.72L527.51 262.5L527.59 262.27L527.65 262.13L527.71 261.99L527.76 261.86L527.82 261.73L527.88 261.6L527.93 261.48L527.99 261.36L528.05 261.24L528.11 261.13L528.17 261.03L528.23 260.92L528.29 260.82L528.36 260.72L528.42 260.63L528.49 260.54L528.56 260.45L528.62 260.36L528.69 260.28L528.77 260.2L528.84 260.12L528.92 260.05L528.99 259.98L529.07 259.91L529.15 259.84L529.24 259.77L529.32 259.71L529.41 259.65L529.5 259.59L529.6 259.53L529.69 259.48L529.79 259.42L529.9 259.37L530 259.32L530.11 259.27L530.22 259.22L530.33 259.17L530.45 259.13L530.57 259.08L530.7 259.04L530.83 259L532.23 258.47L530.13 257.97L530.04 257.95L529.94 257.92L529.84 257.89L529.73 257.86L529.61 257.83L529.48 257.8L529.35 257.76L528.93 257.65L528.78 257.61L528.62 257.56L528.46 257.52L528.29 257.48L528.12 257.43L527.94 257.38L527.76 257.33L527.58 257.29L527.4 257.23L527.21 257.18L527.01 257.13L526.82 257.08L526.62 257.03L526.42 256.97L526.22 256.92L526.01 256.86L525.81 256.8L525.6 256.75L525.39 256.69L525.18 256.63L524.97 256.58L524.76 256.52L524.55 256.46L524.34 256.4L524.13 256.35L523.92 256.29L523.71 256.23L523.5 256.17L523.29 256.12L523.08 256.06L522.77 255.97L522.48 255.88L522.2 255.8L521.93 255.72L521.67 255.64L521.42 255.56L521.18 255.49L520.95 255.42L520.74 255.35L520.53 255.28L520.33 255.22L520.15 255.15L519.97 255.09L519.8 255.03L519.64 254.97L519.49 254.92L519.34 254.86L519.21 254.8L519.08 254.75L518.96 254.7L518.84 254.64L518.74 254.59L518.63 254.54L518.54 254.49L518.45 254.43L518.37 254.38L518.29 254.33L518.22 254.28L518.15 254.22L518.09 254.17L518.03 254.12L517.97 254.06L517.92 254.01L517.88 253.95L517.83 253.89L517.79 253.83L517.75 253.77L517.71 253.71L517.68 253.65L517.65 253.58L517.62 253.54L517.6 253.49L517.57 253.44L517.53 253.39L517.5 253.33L517.45 253.28L517.41 253.21L517.36 253.15L517.32 253.09L517.26 253.02L517.21 252.95L517.15 252.88L517.09 252.81L517.03 252.73L516.96 252.66L516.9 252.58L516.83 252.5L516.75 252.42L516.68 252.34L516.61 252.26L516.53 252.17L516.45 252.09L516.37 252L516.29 251.92L516.2 251.83L516.12 251.75L516.03 251.66L515.95 251.57L515.86 251.49L515.77 251.4L515.68 251.31L515.59 251.23L515.49 251.14L515.4 251.05L515.31 250.97L515.22 250.88L515.12 250.8L515.03 250.72L514.93 250.64L514.84 250.55L512.52 248.53L515.84 234.14L516.07 233.17L516.28 232.25L516.49 231.37L516.68 230.53L516.87 229.73L517.04 228.97L517.21 228.25L517.37 227.57L517.53 226.93L517.67 226.32L517.81 225.74L517.94 225.2L518.07 224.7L518.19 224.22L518.3 223.78L518.41 223.36L518.51 222.98L518.61 222.62L518.71 222.29L518.8 221.98L518.88 221.7L518.96 221.44L519.04 221.21L519.12 220.99L519.19 220.8L519.26 220.63L519.32 220.47L519.39 220.33L519.46 220.21L519.52 220.11L519.58 220.02L519.64 219.94L519.7 219.87L519.76 219.82L519.83 219.77L519.89 219.74L519.95 219.71L520.02 219.69L520.08 219.68L520.15 219.67L520.25 219.66L520.36 219.64L520.48 219.62L520.61 219.59L520.75 219.56L520.9 219.53L521.06 219.48L521.22 219.44L521.4 219.39L521.58 219.33L521.76 219.28L521.95 219.22L522.14 219.15L522.34 219.08L522.54 219.02L522.74 218.94L522.95 218.87L523.15 218.8L523.36 218.72L523.56 218.64L523.77 218.56L523.97 218.48L524.17 218.4L524.36 218.32L524.55 218.24L524.74 218.16L524.92 218.08L525.1 218L525.27 217.92L525.43 217.85L525.58 217.77L525.73 217.7L525.87 217.63L525.99 217.56L526.11 217.49L526.21 217.43L526.31 217.37L526.39 217.31L526.45 217.26L526.5 217.21L526.53 217.19L526.56 217.18L526.61 217.16L526.67 217.15L526.74 217.14L526.82 217.14L526.91 217.13L527.01 217.13L527.12 217.13L527.24 217.13L527.37 217.14L527.5 217.15L527.65 217.15L527.81 217.16L527.97 217.18L528.14 217.19L528.32 217.21L528.51 217.23L528.7 217.25L528.91 217.27L529.12 217.3L529.33 217.32L529.55 217.35L529.78 217.38L530.01 217.41L530.25 217.45L530.5 217.48L530.75 217.52L531 217.56L531.26 217.6L531.52 217.64L531.79 217.69L532.06 217.73L532.34 217.78L532.62 217.83L532.9 217.88L533.18 217.93L533.47 217.98L533.75 218.04L534.05 218.1L541.14 219.45L539.9 217.98L539.8 217.86L539.71 217.74L539.62 217.62L539.53 217.5L539.45 217.38L539.37 217.27L539.29 217.15L539.22 217.04L539.15 216.93L539.09 216.82L539.03 216.71L538.97 216.6L538.92 216.49L538.87 216.38L538.83 216.27L538.79 216.17L538.75 216.06L538.72 215.95L538.69 215.84L538.66 215.73L538.64 215.62L538.62 215.51L538.6 215.4L538.59 215.29L538.58 215.18L538.57 215.07L538.57 214.95L538.57 214.84L538.58 214.72L538.59 214.6L538.6 214.48L538.61 214.36L538.63 214.24L538.65 214.11L538.67 213.99L538.7 213.86L538.73 213.72L538.76 213.59L538.8 213.45L538.84 213.31L538.92 213.05L539.01 212.79L539.12 212.54L539.23 212.3L539.35 212.07L539.48 211.85L539.62 211.63L539.77 211.43L539.92 211.23L540.08 211.04L540.25 210.86L540.42 210.69L540.6 210.53L540.78 210.37L540.97 210.23L541.16 210.1L541.36 209.98L541.56 209.87L541.76 209.76L541.97 209.67L542.18 209.59L542.39 209.52L542.6 209.46L542.81 209.42L543.03 209.38L543.24 209.36L543.45 209.35L543.67 209.35L543.88 209.36L544.09 209.38ZM576.06 260.68L575.65 262.55L575.31 264.2L575.18 265.08L575.77 265.5L577.21 266.02L579.04 266.5L580.77 266.82L581.94 266.84L582.85 266.54L583.61 266.03L584.21 265.33L584.62 264.48L584.83 263.49L584.78 262.42L584.33 261.54L583.43 260.8L582 260.13L579.98 259.46L578.94 259.17L578.03 258.92L577.3 258.71L576.81 258.58L576.61 258.53L576.42 259.16L576.06 260.68ZM557.96 254.16L557.62 255.25L557.26 256.52L556.94 257.81L556.7 258.96L556.57 259.82L556.61 260.23L556.78 260.3L557.22 260.44L557.88 260.65L558.75 260.9L559.79 261.21L560.97 261.54L562.26 261.91L563.63 262.29L570.43 264.15L570.82 262.54L570.89 262.18L570.99 261.78L571.09 261.34L571.19 260.89L571.29 260.43L571.39 259.98L571.48 259.56L571.56 259.18L571.63 258.83L571.69 258.49L571.72 258.17L571.73 257.88L571.72 257.62L571.69 257.4L571.64 257.25L571.57 257.15L571.37 257.05L570.93 256.88L570.3 256.67L569.48 256.41L568.52 256.12L567.44 255.8L566.26 255.46L565.01 255.11L563.77 254.76L562.6 254.43L561.52 254.12L560.57 253.84L559.75 253.6L559.11 253.4L558.67 253.26L558.46 253.18L558.26 253.42L557.96 254.16ZM539.36 252.3L539.21 252.97L539.08 253.59L538.97 254.14L538.89 254.6L538.85 254.96L538.84 255.21L538.87 255.33L539.51 255.58L540.99 256.02L543.03 256.6L545.35 257.22L547.65 257.81L549.67 258.31L551.12 258.62L551.72 258.69L551.77 258.59L551.85 258.36L551.95 258.02L552.07 257.59L552.2 257.07L552.35 256.49L552.51 255.85L552.68 255.17L552.82 254.49L552.95 253.86L553.07 253.28L553.17 252.77L553.26 252.35L553.32 252.03L553.35 251.83L553.36 251.75L553.22 251.7L552.83 251.58L552.22 251.41L551.42 251.19L550.45 250.92L549.35 250.61L548.14 250.27L546.84 249.91L540.38 248.08L539.54 251.6L539.36 252.3ZM530.98 246.5L529.54 247.5L528.84 248.99L528.93 250.65L529.89 252.18L531.03 253.01L532.35 253.67L533.48 254L534.04 253.85L534.15 253.47L534.36 252.67L534.66 251.57L535 250.27L535.28 248.97L535.45 247.86L535.51 247.05L535.43 246.67L534.68 246.37L533.47 246.23L532.12 246.27L530.98 246.5ZM581.66 236.34L581.47 237.28L581.34 238.04L581.28 238.57L581.3 238.8L582.18 239.1L583.92 239.44L585.97 239.73L587.77 239.91L588.79 239.88L589.57 239.52L590.17 239.01L590.59 238.34L590.82 237.49L590.88 236.48L590.83 235.88L590.71 235.29L590.54 234.75L590.32 234.3L590.09 233.98L589.68 233.72L589 233.43L588.11 233.13L587.08 232.85L586 232.61L582.73 231.95L581.89 235.29L581.66 236.34ZM563.8 228.85L563.64 229.16L563.48 229.6L563.31 230.19L563.11 230.93L562.9 231.83L562.75 232.53L562.61 233.18L562.49 233.78L562.39 234.31L562.3 234.76L562.23 235.11L562.18 235.34L562.16 235.44L562.75 235.64L564.33 235.97L566.57 236.4L569.15 236.85L571.73 237.28L574.01 237.64L575.64 237.85L576.31 237.88L576.36 237.79L576.43 237.57L576.52 237.25L576.64 236.85L576.77 236.37L576.91 235.82L577.06 235.23L577.21 234.61L577.36 233.96L577.48 233.35L577.58 232.78L577.65 232.28L577.69 231.85L577.7 231.51L577.68 231.28L577.62 231.16L577.43 231.08L577.01 230.97L576.39 230.82L575.59 230.64L574.64 230.44L573.56 230.23L572.38 230.01L571.14 229.79L569.89 229.57L568.69 229.36L567.59 229.16L566.6 228.98L565.75 228.83L565.07 228.7L564.58 228.62L564.32 228.58L564.14 228.57L563.96 228.65L563.8 228.85ZM545.87 225.42L545.69 225.7L545.5 226.14L545.3 226.78L545.06 227.65L544.78 228.79L543.89 232.49L550.11 233.56L551.36 233.78L552.56 233.98L553.66 234.17L554.64 234.33L555.49 234.47L556.16 234.57L556.62 234.63L556.86 234.65L556.98 234.59L557.12 234.4L557.28 234.1L557.45 233.68L557.63 233.18L557.81 232.59L557.99 231.93L558.16 231.22L558.32 230.51L558.45 229.85L558.57 229.24L558.66 228.7L558.72 228.24L558.75 227.89L558.75 227.65L558.71 227.55L558.55 227.49L558.19 227.4L557.64 227.28L556.93 227.13L556.08 226.97L555.13 226.79L554.08 226.6L552.97 226.4L551.84 226.21L550.75 226.03L549.74 225.85L548.81 225.69L548.01 225.55L547.36 225.44L546.88 225.35L546.59 225.3L546.31 225.26L546.08 225.29L545.87 225.42ZM534.95 224.75L534.26 225.84L534.06 227.46L534.3 228.89L534.95 229.99L536.02 230.78L537.53 231.3L539.23 231.66L539.76 229.34L539.99 228.34L540.23 227.33L540.44 226.41L540.62 225.73L540.74 225.17L540.8 224.7L540.8 224.35L540.73 224.16L540.46 224.08L539.87 224L539.05 223.95L538.09 223.92L536.2 224.13L534.95 224.75Z"></path>
<path fill="#7b8a8b" d="M485.4 210.99C469.81 207.05 446.64 201.3 446.25 201.28C446 201.29 444.21 208.27 442.27 216.79C440.34 225.31 438.55 232.47 438.31 232.72C437.98 233.07 443.51 234.43 454.8 236.85C464.12 238.83 472.05 240.45 472.39 240.41C472.75 240.4 472.38 240.22 471.61 240.09C470.81 239.92 470.19 239.69 470.19 239.57C470.21 239.48 471.65 233.12 473.46 225.43C475.23 217.72 476.78 210.93 476.89 210.37C477.08 209.35 477.23 209.32 479.36 209.79C480.63 210.09 481.62 210.44 481.59 210.53C481.62 210.62 480.04 217.44 478.13 225.69C475.05 239.11 474.6 240.66 473.77 240.59C473 240.51 472.97 240.55 473.62 240.75C474.02 240.89 481.21 242.4 489.61 244.15C490.62 244.37 495.7 245.43 504.85 247.33C506.04 242.15 506.71 239.27 506.84 238.69C507.92 233.91 509.44 227.21 510.28 223.75C511.08 220.32 511.69 217.49 511.66 217.52C511.62 217.49 507.02 216.34 501.37 214.98C495.78 213.61 488.59 211.8 485.4 210.99Z"></path>
<path fill="#7b8a8b" d="M413.32 192.95C413.01 192.84 405.36 224.73 405.39 226.02C405.4 226.27 411.92 227.79 419.84 229.47C434.22 232.49 435.46 232.7 434.49 232.2C434.21 232.06 435.49 225.49 437.62 216.2C437.86 215.15 439.06 209.9 441.22 200.45C441.96 200.55 442.37 200.6 442.45 200.61C443.13 200.65 443.59 200.67 443.5 200.58C443.4 200.49 436.67 198.82 428.55 196.78C420.39 194.77 413.57 193.07 413.32 192.95Z"></path>
<path fill="#7b8a8b" d="M384.51 185.84C384.21 187.4 384.05 188.26 384.02 188.43C383.72 189.88 381.97 197.57 380.12 205.5C378.29 213.47 376.73 220.07 376.71 220.17C376.71 220.29 382.08 221.51 388.68 222.88C389.48 223.04 393.47 223.89 400.65 225.4C400.85 224.51 400.96 224.02 400.98 223.92C401.18 223.09 402.92 215.52 404.87 207.19C406.8 198.79 408.38 191.91 408.41 191.88C408.41 191.82 403.07 190.44 396.49 188.8C394.89 188.4 390.9 187.42 384.51 185.84Z"></path>
<path fill="#7b8a8b" d="M114.08 23.2L115.77 23.27L117.45 23.38L119.13 23.51L120.81 23.67L122.48 23.85L124.15 24.06L125.82 24.29L127.48 24.56L129.14 24.85L130.79 25.16L132.44 25.5L134.08 25.87L135.71 26.26L137.35 26.68L138.97 27.12L140.59 27.59L142.2 28.08L143.8 28.6L145.4 29.14L146.98 29.71L148.56 30.31L150.13 30.93L151.7 31.57L153.25 32.24L154.79 32.94L156.33 33.65L157.85 34.4L159.36 35.16L160.87 35.96L162.36 36.77L163.84 37.61L165.31 38.47L166.76 39.36L168.21 40.27L169.64 41.21L171.06 42.17L171.55 42.51L172.05 42.87L172.58 43.26L173.12 43.67L173.68 44.11L174.25 44.56L174.85 45.04L175.45 45.53L176.08 46.05L176.71 46.58L177.36 47.14L178.03 47.71L178.7 48.3L179.39 48.91L180.09 49.53L180.79 50.17L181.51 50.83L182.24 51.5L182.98 52.19L183.73 52.89L184.48 53.6L185.24 54.33L186.01 55.06L186.78 55.81L187.56 56.58L188.34 57.35L189.13 58.13L189.92 58.92L190.71 59.72L191.51 60.53L192.31 61.35L193.1 62.17L193.9 63L194.7 63.84L195.5 64.68L196.3 65.53L197.1 66.38L197.89 67.24L198.68 68.1L199.47 68.96L200.23 69.79L200.96 70.59L201.68 71.37L202.38 72.13L203.06 72.86L203.72 73.57L204.37 74.26L205 74.93L205.61 75.57L206.21 76.2L206.8 76.8L207.37 77.38L207.93 77.95L208.47 78.49L209 79.02L209.52 79.53L210.02 80.02L210.52 80.5L211 80.95L211.47 81.39L211.94 81.82L212.39 82.23L212.83 82.62L213.27 83L213.7 83.37L214.12 83.72L214.53 84.06L214.93 84.38L215.33 84.69L215.73 84.99L216.12 85.28L216.5 85.56L216.88 85.83L217.25 86.08L217.63 86.33L217.99 86.57L218.36 86.8L218.73 87.02L219.09 87.23L219.45 87.43L219.93 87.7L220.41 87.95L220.88 88.19L221.34 88.42L221.8 88.64L222.26 88.85L222.71 89.05L223.17 89.23L223.63 89.41L224.09 89.57L224.56 89.72L225.03 89.87L225.51 90L226 90.13L226.5 90.24L227.01 90.34L227.53 90.44L228.07 90.52L228.63 90.6L229.2 90.67L229.79 90.73L230.4 90.77L231.04 90.82L231.69 90.85L232.37 90.87L233.08 90.89L233.81 90.9L234.58 90.9L235.37 90.89L236.2 90.88L237.06 90.85L237.95 90.82L238.88 90.79L239.84 90.75L240.85 90.7L241.89 90.64L242.98 90.58L244.11 90.51L245.28 90.43L246.5 90.35L248.25 90.24L249.95 90.13L251.59 90.03L253.18 89.94L254.72 89.85L256.21 89.78L257.65 89.71L259.04 89.66L260.39 89.61L261.69 89.57L262.96 89.54L264.19 89.52L265.37 89.51L266.52 89.51L267.64 89.52L268.73 89.53L269.78 89.56L270.8 89.6L271.8 89.65L272.77 89.71L273.71 89.78L274.63 89.85L275.53 89.94L276.42 90.05L277.28 90.16L278.13 90.28L278.96 90.41L279.78 90.56L280.59 90.71L281.39 90.88L282.18 91.06L282.97 91.25L283.75 91.46L284.53 91.67L285.31 91.9L286.08 92.14L286.86 92.39L287.65 92.65L288.44 92.93L289.24 93.22L289.55 93.34L289.87 93.46L290.18 93.58L290.49 93.7L290.79 93.83L291.09 93.95L291.39 94.07L291.69 94.2L291.98 94.32L292.27 94.45L292.56 94.58L292.84 94.71L293.13 94.84L293.41 94.97L293.69 95.1L293.97 95.24L294.25 95.38L294.53 95.52L294.81 95.66L295.09 95.8L295.37 95.95L295.65 96.09L295.92 96.24L296.2 96.4L296.48 96.55L296.76 96.71L297.05 96.87L297.33 97.04L297.61 97.2L297.9 97.37L298.19 97.55L298.48 97.73L298.77 97.91L299.06 98.09L299.36 98.28L299.66 98.47L299.97 98.67L300.27 98.87L300.58 99.07L300.9 99.28L302.16 100.16L303.39 101.09L304.58 102.06L305.74 103.07L306.86 104.12L307.95 105.22L309 106.35L310.01 107.53L310.99 108.74L311.92 110L312.83 111.3L313.69 112.63L314.52 114.01L315.31 115.42L316.07 116.87L316.78 118.36L317.46 119.89L318.1 121.46L318.71 123.06L319.27 124.69L319.8 126.37L320.29 128.08L320.74 129.82L321.16 131.6L321.53 133.42L321.87 135.27L322.17 137.15L322.42 139.07L322.65 141.02L322.83 143L322.97 145.01L323.07 147.06L323.14 149.14L323.16 151.25L323.14 153.39L323.09 155.56L322.99 157.76L322.86 160L322.68 162.26L322.47 164.55L322.45 164.77L322.42 164.98L322.4 165.2L322.38 165.41L322.36 165.62L322.34 165.83L322.32 166.04L322.3 166.24L322.28 166.44L322.26 166.64L322.25 166.83L322.23 167.02L322.22 167.2L322.21 167.39L322.19 167.56L322.18 167.74L322.17 167.91L322.16 168.07L322.15 168.23L322.14 168.39L322.14 168.54L322.13 168.68L322.12 168.82L322.12 168.95L322.12 169.08L322.11 169.2L322.11 169.31L322.11 169.42L322.11 169.52L322.11 169.62L322.11 169.7L322.12 169.78L322.12 169.86L322.13 169.92L322.13 169.98L322.14 170.03L322.15 170.07L322.16 170.1L322.17 170.13L322.18 170.14L322.19 170.15L322.21 170.17L322.24 170.18L322.27 170.2L322.31 170.21L322.35 170.23L322.4 170.25L322.46 170.27L322.51 170.29L322.58 170.31L322.64 170.33L322.72 170.36L322.79 170.38L322.88 170.41L322.96 170.43L323.05 170.46L323.14 170.49L323.24 170.51L323.34 170.54L323.45 170.57L323.56 170.6L323.67 170.63L323.78 170.66L323.9 170.69L324.02 170.73L324.15 170.76L324.27 170.79L324.4 170.82L324.53 170.86L324.67 170.89L324.8 170.93L324.94 170.96L325.08 171L325.22 171.03L325.37 171.07L325.51 171.1L325.66 171.14L325.81 171.17L325.95 171.21L326.1 171.24L329.81 172.07L329.17 174.88L329.11 175.17L329.02 175.54L328.92 175.98L328.81 176.49L328.68 177.07L328.53 177.71L328.37 178.4L328.2 179.15L328.02 179.94L327.83 180.78L327.63 181.66L327.42 182.58L327.2 183.53L326.98 184.5L326.75 185.5L326.51 186.53L326.27 187.56L326.03 188.61L325.79 189.67L325.55 190.73L325.3 191.79L325.06 192.85L324.82 193.9L324.58 194.93L324.34 195.95L324.11 196.95L323.89 197.92L323.67 198.87L323.46 199.78L323.26 200.66L323.07 201.49L322.89 202.28L322.72 203.02L322.56 203.71L322.41 204.34L322.28 204.91L322.17 205.41L322.07 205.85L321.98 206.21L321.92 206.49L321.36 208.71L318 208.03L317.86 208L317.72 207.96L317.58 207.93L317.44 207.9L317.31 207.87L317.17 207.84L317.03 207.81L316.9 207.77L316.77 207.74L316.63 207.72L316.5 207.69L316.38 207.66L316.25 207.63L316.12 207.6L316 207.58L315.88 207.55L315.76 207.53L315.65 207.5L315.53 207.48L315.42 207.45L315.31 207.43L315.21 207.41L315.11 207.39L315.01 207.37L314.91 207.35L314.82 207.33L314.65 207.29L314.57 207.27L314.49 207.26L314.42 207.24L314.35 207.23L314.29 207.21L314.23 207.2L314.18 207.19L314.13 207.18L314.08 207.17L314.05 207.16L314.01 207.15L313.98 207.15L313.94 207.14L313.91 207.14L313.87 207.15L313.83 207.15L313.79 207.17L313.75 207.18L313.71 207.2L313.67 207.23L313.64 207.25L313.6 207.29L313.56 207.33L313.52 207.37L313.48 207.42L313.44 207.47L313.39 207.53L313.35 207.59L313.31 207.66L313.27 207.74L313.22 207.81L313.18 207.9L313.13 207.99L313.08 208.09L313.04 208.19L312.99 208.3L312.94 208.41L312.88 208.53L312.83 208.66L312.78 208.8L312.72 208.94L312.66 209.08L312.6 209.24L312.54 209.4L312.48 209.57L312.42 209.74L312.35 209.92L312.28 210.11L312.21 210.31L312.14 210.51L312.07 210.72L311.99 210.94L311.84 211.37L311.69 211.8L311.53 212.25L311.36 212.7L311.19 213.16L311.02 213.63L310.83 214.11L310.65 214.59L310.45 215.08L310.26 215.57L310.05 216.07L309.85 216.57L309.64 217.08L309.43 217.59L309.21 218.1L308.99 218.62L308.77 219.13L308.55 219.65L308.32 220.17L308.09 220.68L307.86 221.2L307.63 221.71L307.39 222.23L307.16 222.74L306.92 223.25L306.68 223.75L306.45 224.25L306.21 224.75L305.97 225.24L305.74 225.72L305.5 226.2L305.27 226.67L305.03 227.13L304.8 227.59L304.57 228.03L304.34 228.47L304.11 228.9L303.89 229.32L303.66 229.73L303.44 230.12L302.81 231.24L302.16 232.35L301.5 233.44L300.83 234.51L300.14 235.56L299.45 236.6L298.74 237.62L298.03 238.63L297.3 239.61L296.57 240.58L295.82 241.52L295.07 242.45L294.3 243.36L293.53 244.26L292.75 245.13L291.96 245.98L291.16 246.81L290.35 247.62L289.54 248.41L288.71 249.18L287.88 249.93L287.05 250.66L286.21 251.37L285.36 252.05L284.5 252.72L283.64 253.36L282.78 253.98L281.91 254.57L281.03 255.15L280.15 255.7L279.26 256.22L278.37 256.73L277.48 257.2L276.58 257.66L275.68 258.09L274.77 258.5L273.87 258.88L272.96 259.23L272.04 259.56L271.13 259.87L270.34 260.11L269.55 260.34L268.76 260.56L267.97 260.76L267.17 260.96L266.38 261.14L265.58 261.3L264.78 261.45L263.98 261.6L263.17 261.72L262.37 261.84L261.56 261.94L260.75 262.03L259.94 262.1L259.13 262.17L258.32 262.22L257.5 262.26L256.69 262.28L255.87 262.29L255.06 262.29L254.24 262.28L253.42 262.25L252.6 262.21L251.78 262.15L250.95 262.09L250.13 262.01L249.31 261.92L248.48 261.81L247.66 261.7L246.83 261.56L246.01 261.42L245.18 261.26L244.35 261.09L243.52 260.91L242.7 260.72L241.87 260.51L241.04 260.29L240.21 260.05L239.38 259.8L238.56 259.54L238.02 259.37L237.48 259.19L236.96 259.01L236.43 258.83L235.92 258.65L235.4 258.46L234.89 258.28L234.38 258.08L233.87 257.89L233.36 257.69L232.85 257.48L232.34 257.27L231.82 257.06L231.3 256.84L230.78 256.61L230.25 256.37L229.71 256.13L229.17 255.88L228.62 255.62L228.06 255.36L227.49 255.08L226.91 254.8L226.32 254.5L225.71 254.2L225.1 253.88L224.47 253.56L223.82 253.22L223.16 252.87L222.48 252.51L221.78 252.13L221.07 251.75L220.34 251.35L219.58 250.93L218.81 250.5L218.01 250.06L217.19 249.6L216.35 249.13L215.48 248.64L214.59 248.13L213.67 247.61L213.25 247.37L212.82 247.12L212.39 246.88L211.97 246.64L211.54 246.39L211.11 246.15L210.69 245.91L210.26 245.67L209.84 245.43L209.42 245.2L209 244.96L208.59 244.73L208.18 244.5L207.78 244.27L207.38 244.05L206.98 243.83L206.59 243.61L206.2 243.39L205.83 243.18L205.46 242.98L205.09 242.78L204.74 242.58L204.39 242.39L204.05 242.2L203.72 242.02L203.4 241.84L203.08 241.67L202.78 241.51L202.49 241.35L202.21 241.2L201.95 241.06L201.69 240.92L201.45 240.79L201.22 240.67L201 240.56L200.8 240.45L200.61 240.36L200.44 240.27L200.28 240.19L200.14 240.12L199.31 239.72L198.5 239.35L197.7 238.99L196.9 238.67L196.12 238.36L195.34 238.09L194.56 237.83L193.79 237.6L193.01 237.4L192.24 237.22L191.46 237.06L190.68 236.93L189.89 236.83L189.09 236.75L188.29 236.7L187.47 236.67L186.64 236.67L185.79 236.7L184.93 236.75L184.05 236.83L183.15 236.93L182.22 237.07L181.28 237.23L180.31 237.41L179.31 237.63L178.28 237.87L177.22 238.14L176.13 238.44L175.01 238.77L173.85 239.12L172.66 239.51L171.42 239.92L170.15 240.36L168.83 240.83L167.47 241.33L166.06 241.86L164.61 242.42L163.1 243.01L161.55 243.63L159.94 244.28L158.48 244.87L157.05 245.44L155.65 246L154.28 246.54L152.94 247.06L151.62 247.57L150.34 248.06L149.08 248.53L147.84 248.99L146.63 249.43L145.44 249.86L144.28 250.27L143.14 250.67L142.01 251.06L140.91 251.43L139.82 251.78L138.76 252.12L137.7 252.45L136.67 252.77L135.65 253.07L134.64 253.37L133.65 253.64L132.66 253.91L131.69 254.17L130.73 254.41L129.77 254.65L128.83 254.87L127.89 255.08L126.96 255.28L126.03 255.48L125.11 255.66L124.19 255.83L123.27 256L122.35 256.15L121.44 256.3L120.52 256.44L119.6 256.57L118.68 256.7L117.75 256.81L116.82 256.92L115.59 257.06L114.35 257.17L113.11 257.27L111.86 257.36L110.61 257.43L109.35 257.48L108.09 257.52L106.82 257.54L105.55 257.55L104.28 257.54L103.01 257.51L101.73 257.47L100.45 257.41L99.17 257.34L97.88 257.26L96.6 257.15L95.31 257.03L94.03 256.9L92.74 256.75L91.45 256.59L90.17 256.41L88.88 256.22L87.59 256.01L86.31 255.78L85.03 255.55L83.74 255.29L82.46 255.02L81.19 254.74L79.91 254.44L78.64 254.13L77.37 253.8L76.1 253.46L74.84 253.1L73.58 252.73L72.33 252.35L71.08 251.95L69.84 251.53L68.6 251.1L67.37 250.66L66.14 250.2L64 249.36L61.9 248.48L59.85 247.56L57.86 246.6L55.9 245.61L54 244.58L52.14 243.51L50.33 242.41L48.57 241.26L46.85 240.08L45.19 238.86L43.56 237.61L41.99 236.31L40.46 234.98L38.98 233.6L37.55 232.19L36.16 230.74L34.82 229.26L33.52 227.73L32.27 226.16L31.07 224.56L29.91 222.92L28.8 221.23L27.74 219.51L26.72 217.75L25.75 215.95L24.82 214.11L23.94 212.23L23.11 210.31L22.32 208.35L21.58 206.35L20.88 204.31L20.23 202.23L19.62 200.11L19.06 197.95L18.54 195.75L18.07 193.51L17.64 191.23L17.26 188.91L16.92 186.54L16.76 185.3L16.62 184.03L16.49 182.74L16.38 181.42L16.28 180.09L16.2 178.73L16.13 177.35L16.08 175.96L16.04 174.54L16.01 173.1L16 171.65L16 170.18L16.02 168.69L16.05 167.18L16.1 165.66L16.16 164.12L16.23 162.57L16.32 161L16.42 159.42L16.54 157.82L16.67 156.21L16.81 154.59L16.97 152.96L17.14 151.31L17.32 149.65L17.52 147.99L17.73 146.31L17.95 144.62L18.19 142.92L18.44 141.22L18.71 139.51L18.99 137.79L19.28 136.06L19.58 134.32L19.9 132.58L20.23 130.84L20.57 129.09L20.93 127.33L21.3 125.57L21.68 123.81L22.59 119.82L23.53 115.92L24.5 112.1L25.5 108.37L26.52 104.72L27.58 101.15L28.67 97.67L29.79 94.27L30.94 90.96L32.12 87.73L33.33 84.58L34.58 81.52L35.85 78.53L37.16 75.63L38.5 72.81L39.87 70.07L41.28 67.41L42.71 64.83L44.18 62.33L45.69 59.91L47.22 57.57L48.8 55.3L50.4 53.12L52.04 51.01L53.71 48.99L55.42 47.04L57.16 45.16L58.94 43.37L60.75 41.65L62.6 40.01L64.48 38.44L66.4 36.95L68.36 35.53L70.35 34.19L72.38 32.92L74.44 31.73L76.54 30.61L78.68 29.56L80.86 28.59L83.07 27.69L83.63 27.48L84.19 27.27L84.75 27.07L85.31 26.88L85.87 26.69L86.43 26.5L87 26.32L87.56 26.15L88.13 25.98L88.7 25.81L89.27 25.66L89.84 25.5L90.41 25.35L90.99 25.21L91.57 25.07L92.15 24.94L92.74 24.81L93.32 24.68L93.91 24.57L94.51 24.45L95.11 24.34L95.71 24.24L96.31 24.14L96.92 24.04L97.53 23.95L98.15 23.87L98.77 23.79L99.4 23.71L100.03 23.64L100.67 23.58L101.31 23.51L101.95 23.46L102.6 23.4L103.26 23.35L103.92 23.31L104.59 23.27L105.27 23.24L105.95 23.21L106.64 23.18L107.33 23.16L109.02 23.13L110.71 23.12L112.4 23.15L114.08 23.2ZM309.1 168.76L308.65 170.5L308.09 172.76L307.42 175.44L306.69 178.43L305.92 181.65L305.12 184.99L304.32 188.34L303.55 191.62L302.83 194.71L302.19 197.51L301.64 199.94L301.22 201.88L300.94 203.24L300.83 203.91L300.86 204.06L300.99 204.19L301.19 204.33L301.45 204.45L301.77 204.56L302.12 204.67L302.51 204.75L302.91 204.82L303.32 204.88L303.72 204.91L304.09 204.93L304.44 204.92L304.74 204.88L304.99 204.82L305.17 204.72L305.26 204.6L305.31 204.45L305.4 204.12L305.52 203.62L305.68 202.97L305.88 202.18L306.1 201.25L306.35 200.18L306.63 199L306.93 197.72L307.26 196.33L307.61 194.85L307.97 193.29L308.35 191.65L308.75 189.96L309.15 188.21L309.57 186.42L309.98 184.63L310.38 182.89L310.77 181.2L311.14 179.58L311.49 178.03L311.82 176.57L312.13 175.19L312.42 173.92L312.68 172.76L312.92 171.72L313.12 170.81L313.29 170.03L313.43 169.41L313.52 168.94L313.59 168.64L313.61 168.51L313.57 168.44L313.46 168.36L313.3 168.27L313.1 168.17L312.85 168.07L312.57 167.96L312.27 167.86L311.95 167.75L311.61 167.65L311.27 167.55L310.93 167.47L310.61 167.39L310.3 167.33L310.02 167.28L309.77 167.25L309.55 167.23L309.41 167.63L309.1 168.76ZM217.38 128.62L216.48 128.68L215.58 128.76L214.68 128.86L213.78 128.98L212.89 129.13L211.99 129.29L211.11 129.48L210.22 129.69L209.34 129.92L208.46 130.17L207.59 130.45L206.73 130.74L205.87 131.06L205.01 131.4L204.16 131.77L203.31 132.16L202.46 132.58L201.62 133.02L200.8 133.48L199.99 133.96L199.19 134.47L198.41 134.99L197.64 135.54L196.88 136.1L196.13 136.68L195.4 137.29L194.69 137.91L193.99 138.54L193.31 139.2L192.64 139.87L191.99 140.56L191.35 141.26L190.74 141.98L190.14 142.71L189.56 143.46L188.99 144.22L188.45 144.99L187.92 145.78L187.42 146.58L186.93 147.39L186.47 148.21L186.02 149.04L185.6 149.88L185.2 150.73L184.82 151.6L184.46 152.47L184.12 153.34L183.81 154.23L183.52 155.12L183.25 156.02L183.01 156.93L182.79 157.84L182.6 158.76L182.43 159.68L182.29 160.61L182.08 162.39L181.95 164.15L181.9 165.9L181.93 167.63L182.04 169.34L182.23 171.03L182.49 172.7L182.82 174.34L183.22 175.95L183.69 177.54L184.23 179.1L184.83 180.62L185.5 182.12L186.24 183.57L187.03 184.99L187.88 186.37L188.79 187.71L189.76 189.01L190.78 190.26L191.86 191.47L192.98 192.63L194.16 193.75L195.38 194.81L196.65 195.82L197.97 196.77L199.32 197.67L200.72 198.51L202.16 199.29L203.64 200.01L205.16 200.67L206.71 201.26L208.29 201.78L209.91 202.24L211.55 202.63L213.22 202.95L214.93 203.19L216.65 203.35L218.4 203.45L220.17 203.46L221.97 203.39L222.47 203.36L222.97 203.32L223.47 203.27L223.95 203.23L224.44 203.17L224.91 203.11L225.38 203.05L225.85 202.98L226.31 202.91L226.77 202.83L227.22 202.74L227.67 202.65L228.11 202.56L228.55 202.45L228.99 202.35L229.43 202.23L229.86 202.11L230.3 201.98L230.73 201.85L231.16 201.71L231.58 201.56L232.01 201.41L232.44 201.25L232.86 201.08L233.29 200.91L233.71 200.73L234.14 200.54L234.57 200.35L234.99 200.15L235.42 199.94L235.86 199.72L236.29 199.5L236.73 199.26L237.16 199.03L237.6 198.78L238.05 198.52L238.5 198.26L238.95 197.99L239.4 197.71L239.86 197.42L240.06 197.29L240.26 197.17L240.46 197.04L240.66 196.9L240.87 196.76L241.07 196.63L241.27 196.48L241.47 196.34L241.67 196.2L241.86 196.05L242.06 195.91L242.25 195.76L242.44 195.61L242.63 195.47L242.81 195.32L242.99 195.17L243.17 195.03L243.34 194.89L243.51 194.75L243.67 194.61L243.83 194.47L243.98 194.34L244.12 194.21L244.26 194.08L244.39 193.96L244.51 193.84L244.62 193.72L244.73 193.61L244.83 193.51L244.92 193.41L245 193.31L245.07 193.23L245.13 193.14L245.18 193.07L245.22 193L245.25 192.94L245.26 192.89L245.27 192.84L245.26 192.8L245.24 192.77L245.23 192.77L245.22 192.76L245.2 192.75L245.17 192.74L245.13 192.73L245.09 192.72L245.03 192.71L244.98 192.69L244.91 192.67L244.85 192.66L244.77 192.64L244.69 192.62L244.6 192.6L244.51 192.58L244.41 192.55L244.31 192.53L244.2 192.5L244.09 192.48L243.97 192.45L243.85 192.42L243.72 192.39L243.59 192.36L243.46 192.33L243.32 192.3L243.17 192.27L243.03 192.23L242.88 192.2L242.72 192.17L242.57 192.13L242.41 192.1L242.25 192.06L242.08 192.03L241.91 191.99L241.74 191.95L241.57 191.91L241.39 191.88L241.22 191.84L241.04 191.8L240.86 191.76L240.67 191.72L240.35 191.65L240.04 191.59L239.75 191.53L239.47 191.47L239.2 191.42L238.95 191.37L238.71 191.32L238.48 191.28L238.27 191.24L238.06 191.2L237.86 191.17L237.68 191.14L237.5 191.12L237.33 191.1L237.17 191.09L237.02 191.07L236.87 191.07L236.73 191.06L236.6 191.06L236.46 191.07L236.34 191.08L236.21 191.09L236.09 191.11L235.97 191.13L235.85 191.16L235.74 191.19L235.62 191.23L235.5 191.27L235.39 191.31L235.27 191.36L235.14 191.41L235.02 191.47L234.89 191.53L234.76 191.6L234.62 191.67L234.48 191.75L234.33 191.83L234.17 191.92L234.01 192.01L233.84 192.11L233.56 192.26L233.27 192.42L232.98 192.57L232.68 192.72L232.38 192.86L232.07 193L231.76 193.14L231.45 193.28L231.14 193.41L230.82 193.54L230.5 193.66L230.17 193.79L229.84 193.91L229.51 194.02L229.18 194.13L228.84 194.24L228.5 194.35L228.16 194.45L227.81 194.54L227.47 194.64L227.12 194.73L226.77 194.82L226.42 194.9L226.07 194.98L225.71 195.05L225.36 195.12L225 195.19L224.64 195.25L224.28 195.31L223.92 195.37L223.56 195.42L223.2 195.47L222.84 195.51L222.47 195.55L222.11 195.58L221.75 195.62L221.39 195.64L221.02 195.66L220.66 195.68L220.3 195.7L219.93 195.71L219.57 195.71L219.2 195.71L218.84 195.71L218.48 195.71L218.12 195.7L217.77 195.68L217.42 195.67L217.06 195.64L216.71 195.62L216.37 195.59L216.02 195.56L215.67 195.52L215.33 195.48L214.99 195.43L214.64 195.38L214.3 195.33L213.96 195.27L213.62 195.21L213.29 195.14L212.95 195.07L212.61 195L212.27 194.92L211.94 194.84L211.6 194.75L211.26 194.66L210.92 194.56L210.59 194.46L210.25 194.36L209.91 194.25L209.57 194.14L209.23 194.02L208.89 193.89L208.55 193.77L208.21 193.64L207.87 193.5L207.52 193.36L207.18 193.21L206.83 193.06L206.48 192.91L206.27 192.81L206.07 192.72L205.87 192.63L205.68 192.54L205.5 192.45L205.32 192.37L205.14 192.28L204.97 192.19L204.81 192.11L204.65 192.02L204.49 191.93L204.33 191.84L204.17 191.75L204.02 191.66L203.87 191.56L203.72 191.47L203.56 191.37L203.41 191.26L203.26 191.15L203.11 191.04L202.95 190.93L202.79 190.81L202.63 190.68L202.47 190.55L202.3 190.41L202.13 190.27L201.95 190.12L201.77 189.97L201.59 189.8L201.39 189.63L201.2 189.46L200.99 189.27L200.78 189.07L200.56 188.87L200.33 188.66L200.09 188.44L199.84 188.2L199.59 187.96L199.32 187.71L199.04 187.45L198.75 187.17L198.47 186.9L198.21 186.65L197.95 186.41L197.71 186.17L197.48 185.95L197.26 185.73L197.05 185.53L196.85 185.33L196.66 185.14L196.48 184.95L196.31 184.77L196.14 184.6L195.98 184.43L195.83 184.26L195.69 184.1L195.55 183.94L195.41 183.79L195.29 183.63L195.16 183.48L195.05 183.33L194.93 183.18L194.82 183.03L194.71 182.87L194.61 182.72L194.5 182.56L194.4 182.41L194.3 182.24L194.2 182.08L194.1 181.91L194 181.74L193.9 181.56L193.8 181.37L193.7 181.18L193.59 180.98L193.48 180.77L193.37 180.56L193.26 180.34L193.14 180.1L193.02 179.86L192.69 179.19L192.38 178.52L192.09 177.85L191.81 177.17L191.55 176.49L191.31 175.81L191.08 175.12L190.87 174.43L190.68 173.74L190.5 173.05L190.34 172.35L190.2 171.65L190.08 170.96L189.97 170.26L189.88 169.56L189.8 168.85L189.74 168.15L189.7 167.45L189.68 166.74L189.67 166.04L189.68 165.33L189.71 164.63L189.75 163.92L189.81 163.22L189.89 162.51L189.99 161.81L190.1 161.11L190.22 160.4L190.37 159.7L190.53 159L190.71 158.3L190.9 157.61L191.11 156.91L191.34 156.22L191.59 155.53L191.85 154.84L192.13 154.16L192.43 153.47L192.74 152.79L193.07 152.11L193.15 151.94L193.24 151.77L193.32 151.6L193.41 151.44L193.5 151.28L193.58 151.12L193.67 150.96L193.76 150.8L193.85 150.65L193.94 150.49L194.03 150.34L194.12 150.19L194.22 150.04L194.31 149.89L194.41 149.75L194.51 149.6L194.61 149.45L194.72 149.3L194.82 149.16L194.93 149.01L195.04 148.86L195.15 148.71L195.26 148.57L195.38 148.42L195.5 148.27L195.63 148.11L195.75 147.96L195.88 147.81L196.01 147.65L196.15 147.49L196.29 147.33L196.43 147.17L196.58 147L196.73 146.84L196.89 146.67L197.05 146.49L197.21 146.32L197.38 146.14L197.55 145.95L197.73 145.77L198.01 145.47L198.3 145.18L198.57 144.9L198.84 144.63L199.11 144.36L199.37 144.11L199.63 143.86L199.88 143.62L200.13 143.39L200.38 143.16L200.63 142.94L200.88 142.73L201.13 142.52L201.37 142.32L201.62 142.13L201.87 141.94L202.12 141.75L202.37 141.57L202.62 141.4L202.88 141.22L203.13 141.06L203.4 140.89L203.66 140.73L203.93 140.57L204.21 140.41L204.49 140.26L204.77 140.1L205.06 139.95L205.36 139.8L205.67 139.65L205.98 139.5L206.31 139.36L206.64 139.21L206.98 139.06L207.33 138.91L207.69 138.76L208.06 138.61L208.44 138.46L208.83 138.3L209.23 138.15L209.5 138.04L209.76 137.95L210.02 137.85L210.27 137.76L210.51 137.68L210.74 137.6L210.97 137.52L211.2 137.44L211.42 137.37L211.63 137.3L211.85 137.24L212.06 137.18L212.26 137.12L212.47 137.06L212.67 137.01L212.88 136.96L213.08 136.92L213.29 136.87L213.49 136.83L213.7 136.79L213.9 136.76L214.11 136.72L214.32 136.69L214.54 136.66L214.76 136.63L214.98 136.61L215.21 136.59L215.44 136.57L215.68 136.55L215.93 136.53L216.18 136.51L216.44 136.5L216.7 136.49L216.98 136.48L217.26 136.47L217.55 136.46L217.86 136.45L218.17 136.44L218.49 136.44L218.83 136.43L219.14 136.42L219.45 136.42L219.75 136.41L220.04 136.41L220.32 136.4L220.6 136.4L220.86 136.4L221.13 136.4L221.38 136.41L221.63 136.41L221.87 136.42L222.11 136.43L222.34 136.44L222.57 136.45L222.8 136.46L223.02 136.48L223.24 136.5L223.45 136.52L223.66 136.54L223.87 136.57L224.07 136.59L224.28 136.62L224.48 136.65L224.68 136.68L224.88 136.72L225.08 136.76L225.29 136.8L225.49 136.84L225.69 136.88L225.89 136.93L226.09 136.98L226.3 137.03L226.5 137.08L226.71 137.14L226.92 137.2L227.14 137.26L227.36 137.32L227.58 137.39L227.8 137.45L228.03 137.53L228.19 137.58L228.35 137.63L228.52 137.69L228.68 137.75L228.85 137.8L229.02 137.87L229.19 137.93L229.37 137.99L229.54 138.06L229.72 138.12L229.89 138.19L230.07 138.26L230.24 138.33L230.42 138.4L230.6 138.47L230.77 138.54L230.95 138.62L231.12 138.69L231.3 138.76L231.47 138.84L231.64 138.91L231.81 138.98L231.98 139.06L232.15 139.13L232.31 139.21L232.47 139.28L232.63 139.36L232.79 139.43L232.94 139.5L233.09 139.57L233.24 139.65L233.38 139.72L233.52 139.79L233.65 139.86L233.78 139.93L233.91 139.99L234.03 140.06L234.14 140.13L234.26 140.19L234.36 140.25L234.58 140.39L234.81 140.53L235.05 140.68L235.29 140.84L235.54 141.01L235.79 141.18L236.04 141.37L236.3 141.56L236.56 141.76L236.82 141.96L237.09 142.17L237.36 142.39L237.63 142.61L237.9 142.83L238.18 143.06L238.45 143.3L238.72 143.53L239 143.77L239.27 144.02L239.54 144.26L239.8 144.51L240.07 144.76L240.33 145.01L240.59 145.26L240.85 145.52L241.1 145.77L241.35 146.02L241.59 146.27L241.83 146.52L242.06 146.77L242.29 147.02L242.51 147.27L242.72 147.51L242.93 147.75L243.12 147.98L243.31 148.22L243.49 148.44L243.66 148.67L243.82 148.89L243.97 149.1L245.37 151.09L254.82 153.49L253.97 151.37L253.93 151.28L253.89 151.19L253.85 151.09L253.8 150.99L253.75 150.89L253.7 150.78L253.64 150.67L253.59 150.56L253.53 150.44L253.47 150.32L253.41 150.2L253.35 150.08L253.29 149.95L253.22 149.82L253.15 149.69L253.09 149.56L253.02 149.43L252.95 149.3L252.87 149.16L252.8 149.02L252.73 148.89L252.66 148.75L252.58 148.61L252.51 148.48L252.43 148.34L252.36 148.2L252.28 148.06L252.2 147.92L252.13 147.79L252.05 147.65L251.97 147.52L251.9 147.38L251.82 147.25L251.75 147.12L251.67 146.99L251.6 146.86L251.52 146.73L251.45 146.61L251.37 146.49L251.3 146.37L251.12 146.07L250.92 145.76L250.71 145.45L250.49 145.13L250.26 144.8L250.01 144.47L249.76 144.14L249.49 143.8L249.22 143.45L248.94 143.11L248.65 142.76L248.35 142.41L248.05 142.05L247.74 141.7L247.42 141.35L247.1 141L246.78 140.64L246.45 140.29L246.11 139.95L245.78 139.6L245.44 139.26L245.1 138.92L244.76 138.59L244.41 138.26L244.07 137.93L243.73 137.62L243.39 137.31L243.05 137L242.71 136.71L242.37 136.42L242.04 136.14L241.71 135.88L241.38 135.62L241.06 135.37L240.75 135.14L240.44 134.91L240.14 134.7L239.84 134.5L239.55 134.32L239.27 134.15L238.46 133.67L237.64 133.22L236.81 132.78L235.97 132.37L235.13 131.98L234.28 131.61L233.43 131.26L232.56 130.93L231.7 130.62L230.82 130.34L229.95 130.07L229.06 129.83L228.18 129.61L227.29 129.41L226.4 129.23L225.5 129.07L224.6 128.94L223.7 128.82L222.8 128.73L221.9 128.66L221 128.61L220.09 128.58L219.19 128.57L218.28 128.59L217.38 128.62ZM290.29 163.85L289.87 165.42L289.36 167.47L288.75 169.92L288.08 172.67L287.36 175.66L286.61 178.78L285.86 181.97L285.11 185.13L284.41 188.18L283.75 191.04L283.17 193.63L282.68 195.85L282.3 197.62L282.06 198.87L281.97 199.5L281.97 199.61L281.98 199.71L281.99 199.81L282.02 199.9L282.06 199.98L282.12 200.06L282.19 200.13L282.27 200.2L282.37 200.27L282.49 200.33L282.63 200.39L282.78 200.46L282.97 200.52L283.17 200.58L283.4 200.64L283.65 200.71L283.93 200.77L284.12 200.83L284.31 200.87L284.49 200.92L284.67 200.96L284.84 200.99L285 201.02L285.16 201.05L285.31 201.07L285.45 201.09L285.58 201.11L285.69 201.12L285.8 201.12L285.89 201.12L285.96 201.12L286.02 201.11L286.06 201.1L286.09 201.09L286.13 200.98L286.2 200.71L286.32 200.29L286.46 199.72L286.64 199.01L286.85 198.17L287.08 197.2L287.34 196.13L287.63 194.94L287.94 193.65L288.26 192.27L288.61 190.81L288.97 189.27L289.34 187.66L289.73 185.99L290.13 184.27L290.54 182.5L290.94 180.73L291.34 179.01L291.72 177.33L292.09 175.72L292.44 174.17L292.78 172.7L293.09 171.31L293.38 170.01L293.65 168.81L293.9 167.72L294.11 166.74L294.3 165.89L294.46 165.17L294.58 164.58L294.67 164.14L294.72 163.86L294.73 163.74L294.7 163.67L294.62 163.6L294.48 163.52L294.3 163.43L294.08 163.34L293.83 163.24L293.55 163.14L293.25 163.05L292.94 162.95L292.63 162.86L292.31 162.77L292 162.69L291.69 162.62L291.41 162.57L291.14 162.52L290.91 162.5L290.71 162.48L290.57 162.84L290.29 163.85ZM121.17 84.81L120.96 84.83L120.76 84.86L120.57 84.89L120.4 84.93L120.24 84.98L120.09 85.04L119.95 85.11L119.82 85.18L119.7 85.27L119.58 85.35L119.47 85.45L119.37 85.55L119.27 85.66L119.17 85.78L119.08 85.91L118.98 86.19L118.79 86.83L118.53 87.83L118.19 89.17L117.78 90.81L117.3 92.75L116.77 94.97L116.17 97.43L115.52 100.14L114.83 103.06L114.09 106.17L113.32 109.46L112.51 112.91L111.66 116.5L110.8 120.2L109.91 124L109.01 127.89L108.09 131.83L107.17 135.81L106.25 139.81L105.32 143.81L104.41 147.8L103.5 151.74L102.61 155.63L101.74 159.44L100.89 163.16L100.07 166.76L99.29 170.22L98.54 173.53L97.84 176.66L97.18 179.6L96.57 182.33L96.02 184.82L95.53 187.06L95.11 189.03L94.75 190.71L94.47 192.07L94.27 193.11L94.15 193.79L94.12 194.11L94.13 194.25L94.15 194.39L94.18 194.52L94.21 194.65L94.25 194.78L94.3 194.91L94.36 195.03L94.42 195.14L94.5 195.26L94.58 195.37L94.68 195.48L94.78 195.59L94.9 195.7L95.03 195.8L95.17 195.91L95.32 196.01L95.48 196.11L95.66 196.21L95.85 196.31L96.06 196.41L96.28 196.51L96.51 196.61L96.76 196.71L97.02 196.81L97.3 196.91L97.6 197.01L97.91 197.11L98.24 197.21L98.58 197.31L98.95 197.42L99.33 197.52L99.74 197.63L100.16 197.74L100.6 197.86L101.06 197.97L101.54 198.09L102.04 198.21L102.57 198.34L103.11 198.46L103.68 198.6L104.21 198.71L104.73 198.83L105.22 198.94L105.69 199.04L106.15 199.13L106.58 199.23L107 199.31L107.4 199.39L107.78 199.46L108.14 199.53L108.49 199.59L108.83 199.65L109.14 199.7L109.45 199.74L109.73 199.78L110.01 199.82L110.27 199.85L110.52 199.87L110.76 199.89L110.98 199.9L111.2 199.9L111.4 199.91L111.59 199.9L111.78 199.89L111.95 199.87L112.12 199.85L112.27 199.83L112.42 199.79L112.56 199.76L112.7 199.71L112.83 199.67L112.95 199.61L113.07 199.55L113.18 199.49L113.29 199.42L113.4 199.34L113.5 199.26L113.6 199.18L113.69 199.08L113.79 198.99L113.88 198.74L114.07 198.11L114.33 197.13L114.67 195.8L115.08 194.16L115.56 192.22L116.1 190L116.71 187.52L117.36 184.81L118.06 181.87L118.81 178.74L119.6 175.42L120.42 171.95L121.27 168.34L122.15 164.61L123.05 160.77L123.97 156.86L124.9 152.89L125.84 148.87L126.78 144.84L127.71 140.8L128.64 136.79L129.56 132.81L130.47 128.89L131.35 125.05L132.21 121.31L133.04 117.69L133.83 114.2L134.59 110.88L135.3 107.73L135.97 104.78L136.58 102.04L137.13 99.55L137.62 97.31L138.05 95.35L138.4 93.68L138.68 92.33L138.88 91.32L138.99 90.66L139.02 90.38L138.99 90.28L138.96 90.19L138.93 90.09L138.89 89.99L138.84 89.89L138.78 89.8L138.72 89.7L138.66 89.61L138.58 89.52L138.51 89.43L138.42 89.33L138.33 89.24L138.23 89.16L138.13 89.07L138.02 88.98L137.91 88.9L137.79 88.81L137.66 88.73L137.53 88.64L137.39 88.56L137.25 88.48L137.1 88.4L136.94 88.32L136.78 88.24L136.61 88.16L136.44 88.09L136.26 88.01L136.07 87.94L135.88 87.86L135.68 87.79L135.48 87.72L135.27 87.65L135.05 87.58L134.83 87.51L134.6 87.44L134.37 87.38L134.13 87.31L133.89 87.25L133.64 87.18L133.38 87.12L132.55 86.92L131.76 86.72L131 86.54L130.27 86.37L129.58 86.2L128.92 86.05L128.29 85.9L127.68 85.77L127.11 85.64L126.56 85.52L126.04 85.42L125.55 85.32L125.08 85.23L124.64 85.14L124.22 85.07L123.83 85.01L123.45 84.95L123.1 84.9L122.77 84.86L122.46 84.83L122.17 84.81L121.89 84.8L121.63 84.79L121.39 84.8L121.17 84.81ZM268.93 179.08L268.53 180.86L268.14 182.58L267.76 184.24L267.4 185.83L267.05 187.35L266.73 188.78L266.43 190.11L266.15 191.34L265.9 192.46L265.67 193.46L265.48 194.33L265.31 195.07L265.18 195.66L265.09 196.1L265.03 196.38L265.01 196.49L265.04 196.54L265.12 196.6L265.24 196.67L265.41 196.74L265.61 196.83L265.84 196.91L266.09 197L266.36 197.09L266.65 197.18L266.94 197.27L267.23 197.35L267.53 197.42L267.81 197.49L268.08 197.55L268.33 197.6L268.56 197.63L268.75 197.65L268.84 197.61L268.96 197.44L269.09 197.16L269.25 196.74L269.44 196.2L269.64 195.53L269.88 194.72L270.13 193.78L270.42 192.7L270.73 191.48L271.08 190.11L271.45 188.6L271.85 186.93L272.28 185.11L272.75 183.14L273.24 181.01L273.78 178.71L274.19 176.89L274.6 175.1L275 173.38L275.37 171.71L275.73 170.11L276.07 168.6L276.39 167.17L276.68 165.83L276.95 164.59L277.19 163.47L277.4 162.47L277.58 161.59L277.73 160.85L277.85 160.25L277.92 159.8L277.96 159.51L277.96 159.4L277.93 159.37L277.89 159.33L277.83 159.3L277.75 159.26L277.66 159.22L277.56 159.18L277.44 159.13L277.31 159.09L277.17 159.04L277.02 158.99L276.86 158.95L276.69 158.9L276.52 158.85L276.34 158.81L276.15 158.76L275.96 158.72L275.76 158.68L273.7 158.21L269.35 177.26L268.93 179.08ZM259.3 154.77L259.21 154.81L259.14 154.87L259.07 154.95L259.02 155.04L258.97 155.15L258.94 155.28L258.9 155.43L258.87 155.6L258.82 155.79L258.74 156.14L258.63 156.65L258.48 157.3L258.3 158.09L258.09 159.01L257.85 160.05L257.58 161.2L257.29 162.46L256.98 163.81L256.65 165.24L256.3 166.76L255.94 168.34L255.56 169.99L255.17 171.69L254.76 173.43L254.35 175.21L250.09 193.73L252.18 194.17L252.38 194.2L252.57 194.24L252.76 194.28L252.95 194.32L253.13 194.35L253.3 194.39L253.46 194.42L253.62 194.45L253.77 194.48L253.9 194.51L254.03 194.53L254.14 194.55L254.24 194.57L254.32 194.58L254.39 194.59L254.43 194.6L254.47 194.6L254.5 194.51L254.57 194.25L254.68 193.82L254.83 193.24L255.02 192.51L255.23 191.63L255.48 190.63L255.75 189.5L256.05 188.26L256.38 186.92L256.73 185.47L257.09 183.94L257.47 182.32L257.87 180.63L258.29 178.88L258.71 177.07L259.14 175.21L259.57 173.34L259.99 171.52L260.39 169.75L260.78 168.05L261.14 166.43L261.49 164.88L261.82 163.43L262.12 162.07L262.4 160.81L262.65 159.68L262.87 158.66L263.06 157.78L263.22 157.03L263.34 156.44L263.42 155.99L263.47 155.72L263.47 155.61L263.45 155.59L263.4 155.57L263.34 155.55L263.26 155.52L263.17 155.49L263.06 155.46L262.94 155.43L262.8 155.39L262.66 155.35L262.5 155.31L262.34 155.27L262.16 155.23L261.98 155.18L261.79 155.14L261.59 155.09L261.39 155.04L261.18 154.99L260.85 154.92L260.56 154.86L260.3 154.81L260.07 154.77L259.87 154.74L259.69 154.73L259.54 154.73L259.41 154.74L259.3 154.77ZM217.42 138.97L216.58 139.04L215.73 139.14L214.89 139.27L214.06 139.42L213.23 139.6L212.4 139.8L211.58 140.03L210.76 140.28L209.95 140.56L209.15 140.87L208.35 141.2L207.57 141.56L206.79 141.94L206.02 142.34L205.26 142.78L204.51 143.24L204.4 143.3L204.29 143.38L204.18 143.46L204.05 143.54L203.93 143.64L203.8 143.73L203.67 143.84L203.53 143.94L203.39 144.06L203.25 144.17L203.1 144.29L202.95 144.42L202.8 144.55L202.65 144.68L202.49 144.81L202.33 144.95L202.17 145.09L202.01 145.24L201.85 145.38L201.69 145.53L201.53 145.68L201.36 145.84L201.2 145.99L201.04 146.14L200.88 146.3L200.71 146.46L200.55 146.62L200.39 146.77L200.23 146.93L200.08 147.09L199.92 147.25L199.77 147.41L199.61 147.56L199.47 147.72L199.02 148.21L198.58 148.71L198.16 149.21L197.76 149.72L197.37 150.23L197 150.74L196.64 151.26L196.3 151.79L195.97 152.32L195.66 152.86L195.36 153.4L195.07 153.94L194.8 154.49L194.55 155.05L194.31 155.62L194.08 156.18L193.87 156.76L193.68 157.34L193.5 157.93L193.33 158.52L193.17 159.12L193.04 159.73L192.91 160.34L192.8 160.96L192.7 161.58L192.62 162.22L192.55 162.86L192.5 163.5L192.46 164.16L192.43 164.82L192.42 165.49L192.42 166.16L192.44 166.85L192.47 167.54L192.54 168.61L192.65 169.67L192.81 170.72L193 171.76L193.23 172.78L193.51 173.79L193.81 174.78L194.16 175.76L194.54 176.71L194.96 177.65L195.41 178.57L195.9 179.48L196.41 180.36L196.97 181.21L197.55 182.05L198.16 182.86L198.81 183.65L199.48 184.42L200.19 185.16L200.92 185.87L201.68 186.55L202.46 187.21L203.28 187.84L204.11 188.44L204.97 189.01L205.86 189.54L206.77 190.05L207.7 190.52L208.65 190.96L209.63 191.36L210.62 191.73L211.63 192.06L212.67 192.35L213.72 192.61L214.06 192.68L214.42 192.74L214.8 192.8L215.19 192.85L215.6 192.9L216.01 192.94L216.44 192.97L216.88 192.99L217.33 193.01L217.79 193.03L218.26 193.03L218.73 193.03L219.21 193.03L219.69 193.01L220.17 193L220.65 192.97L221.14 192.94L221.62 192.91L222.11 192.87L222.59 192.82L223.06 192.77L223.54 192.71L224 192.65L224.46 192.58L224.91 192.51L225.35 192.43L225.79 192.35L226.21 192.26L226.61 192.16L227.01 192.07L227.39 191.96L227.75 191.86L228.1 191.74L228.43 191.63L229.69 191.12L230.91 190.57L232.09 189.97L233.24 189.32L234.34 188.63L235.4 187.89L236.42 187.12L237.39 186.3L238.32 185.45L239.21 184.56L240.05 183.63L240.84 182.68L241.59 181.69L242.28 180.68L242.93 179.63L243.53 178.56L244.08 177.47L244.58 176.36L245.02 175.22L245.41 174.07L245.75 172.89L246.03 171.71L246.26 170.51L246.43 169.29L246.54 168.07L246.59 166.84L246.59 165.6L246.53 164.35L246.4 163.11L246.22 161.86L245.97 160.61L245.66 159.36L245.28 158.11L244.84 156.87L244.76 156.67L244.68 156.46L244.6 156.24L244.51 156.03L244.43 155.82L244.34 155.61L244.25 155.39L244.16 155.18L244.06 154.97L243.97 154.75L243.88 154.54L243.78 154.33L243.69 154.12L243.59 153.92L243.5 153.71L243.4 153.51L243.31 153.31L243.22 153.12L243.12 152.93L243.03 152.74L242.94 152.56L242.85 152.38L242.76 152.2L242.67 152.04L242.58 151.87L242.5 151.72L242.41 151.57L242.33 151.42L242.25 151.29L242.18 151.16L242.1 151.03L242.03 150.92L241.96 150.81L241.9 150.72L241.71 150.46L241.51 150.2L241.3 149.93L241.08 149.65L240.85 149.37L240.6 149.09L240.35 148.8L240.08 148.51L239.81 148.22L239.53 147.92L239.24 147.63L238.95 147.33L238.65 147.04L238.34 146.74L238.03 146.45L237.72 146.16L237.41 145.87L237.09 145.59L236.77 145.31L236.45 145.04L236.13 144.77L235.81 144.51L235.5 144.25L235.18 144L234.87 143.76L234.56 143.53L234.26 143.31L233.96 143.1L233.67 142.9L233.38 142.71L233.1 142.53L232.83 142.37L232.57 142.22L232.32 142.08L231.54 141.69L230.74 141.32L229.94 140.98L229.14 140.66L228.32 140.37L227.5 140.11L226.68 139.87L225.85 139.66L225.02 139.47L224.18 139.31L223.34 139.18L222.5 139.07L221.65 138.99L220.8 138.93L219.96 138.9L219.11 138.9L218.26 138.92L217.42 138.97Z"></path>
<path fill="#7b8a8b" d="M358.66 179.52C358.29 179.53 356.69 185.43 354.12 196.7C351.96 206.14 350.16 214.07 350.16 214.32C350.17 214.56 355.08 215.82 361.16 217.12C361.9 217.27 365.58 218.04 372.21 219.42C372.5 218.05 372.67 217.29 372.7 217.14C373.89 211.73 379.43 187.9 379.83 186.42C379.86 186.31 380.01 185.75 380.28 184.75L369.77 182.13C362.61 180.38 358.91 179.51 358.66 179.52Z"></path>
<path fill="#7b8a8b" d="M334.42 173.58C334.27 173.74 332.32 181.89 330.05 191.77C327.39 203.31 326.14 209.73 326.51 209.78C330.92 210.81 344.22 213.52 344.74 213.53C345.33 213.55 345.92 211.6 347.53 204.75C348.64 199.87 350.5 191.87 351.6 187C351.74 186.41 352.44 183.45 353.68 178.14L344.17 175.73C337.75 174.22 334.5 173.5 334.42 173.58Z"></path>
<text x="0" y="190" font-size="84" font-family="sans-serif" font-weight="bold" fill="#fff">chordtone.xyz</text>
</svg>
